<?xml version="1.0" encoding="UTF-8" standalone="no"?>
<svg width="40px" height="40px" viewBox="0 0 40 40" version="1.1" xmlns="http://www.w3.org/2000/svg" xmlns:xlink="http://www.w3.org/1999/xlink" xmlns:sketch="http://www.bohemiancoding.com/sketch/ns">
    <!-- Generator: Sketch 3.4.4 (17249) - http://www.bohemiancoding.com/sketch -->
    <title>-g-chf</title>
    <desc>Created with Sketch.</desc>
    <defs></defs>
    <g id="x" stroke="none" stroke-width="1" fill="none" fill-rule="evenodd" sketch:type="MSPage">
        <g id="6.0" sketch:type="MSArtboardGroup" transform="translate(-775.000000, -338.000000)">
            <g id="Group" sketch:type="MSLayerGroup" transform="translate(625.000000, 338.000000)">
                <g id="-g-chf" transform="translate(150.000000, 0.000000)">
                    <path d="M20,40 C31.045695,40 40,31.045695 40,20 C40,8.954305 31.045695,0 20,0 C8.954305,0 0,8.954305 0,20 C0,31.045695 8.954305,40 20,40 Z M32.4764171,15 L32.4764171,16.3335943 L28.2758871,16.3335943 L28.2758871,19.000783 L31.8211082,19.000783 L31.8211082,20.3406091 L28.2758871,20.3406091 L28.2758871,24.0111094 L26.5,24.0111094 L26.5,15 L32.4764171,15 Z M24.3836574,24.0111094 L22.6077703,24.0111094 L22.6077703,20.0726439 L18.164776,20.0726439 L18.164776,24.0111094 L16.3888889,24.0111094 L16.3888889,15 L18.164776,15 L18.164776,18.876148 L22.6077703,18.876148 L22.6077703,15 L24.3836574,15 L24.3836574,24.0111094 Z M14.0642299,21.9857909 C14.1603424,21.9857909 14.2433473,22.0211038 14.3132473,22.0917306 L15.0078747,22.8083818 C14.6234249,23.2612245 14.1505151,23.6081217 13.589131,23.8490839 C13.0277469,24.0900461 12.3538776,24.2105254 11.567503,24.2105254 C10.8641346,24.2105254 10.2317678,24.0962778 9.67038375,23.8677792 C9.10899966,23.6392806 8.62953678,23.3214645 8.23198073,22.9143215 C7.83442467,22.5071786 7.52970908,22.021107 7.31782481,21.4560922 C7.10594055,20.8910775 7,20.2741405 7,19.6052627 C7,18.9280759 7.11795442,18.308023 7.3538668,17.7450855 C7.58977919,17.182148 7.92179904,16.6971151 8.34993633,16.2899721 C8.77807361,15.8828291 9.29030161,15.5660517 9.88663569,15.3396303 C10.4829698,15.113209 11.1415486,15 11.862392,15 C12.5657604,15 13.1806524,15.1069773 13.7070866,15.3209351 C14.2335207,15.5348929 14.6845871,15.8184346 15.0602994,16.1715689 L14.4705214,16.9505375 C14.4355714,17.0003918 14.3907924,17.0440136 14.3361831,17.0814042 C14.2815738,17.1187949 14.206214,17.13749 14.1101015,17.13749 C14.0096203,17.13749 13.9069563,17.1000999 13.8021063,17.0253185 C13.6972564,16.9505371 13.5640116,16.8695252 13.4023679,16.7822803 C13.2407243,16.6950354 13.0364884,16.6140234 12.7896541,16.5392421 C12.5428199,16.4644607 12.2293669,16.4270706 11.8492858,16.4270706 C11.4036736,16.4270706 10.9941096,16.5008122 10.6205817,16.6482977 C10.2470537,16.7957831 9.92595557,17.0066219 9.65727758,17.2808202 C9.38859959,17.5550186 9.17890284,17.8884138 9.02818104,18.281016 C8.87745924,18.6736181 8.80209947,19.1150293 8.80209947,19.6052627 C8.80209947,20.1121142 8.87745924,20.5628728 9.02818104,20.9575523 C9.17890284,21.3522317 9.38313873,21.6845883 9.64089485,21.9546322 C9.89865098,22.224676 10.2022744,22.4313603 10.5517742,22.5746912 C10.901274,22.7180222 11.2769807,22.7896866 11.6789055,22.7896866 C11.9191867,22.7896866 12.1365286,22.7772232 12.3309379,22.7522961 C12.5253472,22.7273689 12.7044631,22.6879016 12.8682912,22.6338928 C13.0321192,22.5798841 13.1872074,22.5102969 13.3335605,22.4251292 C13.4799135,22.3399616 13.6251722,22.2350615 13.7693409,22.1104259 C13.8130284,22.0730352 13.8588995,22.0429154 13.9069558,22.0200655 C13.955012,21.9972157 14.0074362,21.9857909 14.0642299,21.9857909 Z" id="star-red" fill="#FFFFFF" sketch:type="MSShapeGroup"></path>
                    <g id="Path-+-Path-+-Path" transform="translate(7.000000, 15.000000)"></g>
                </g>
            </g>
        </g>
    </g>
</svg>