<?xml version="1.0" encoding="UTF-8" standalone="no"?>
<svg width="40px" height="40px" viewBox="0 0 40 40" version="1.1" xmlns="http://www.w3.org/2000/svg" xmlns:xlink="http://www.w3.org/1999/xlink" xmlns:sketch="http://www.bohemiancoding.com/sketch/ns">
    <!-- Generator: Sketch 3.4.4 (17249) - http://www.bohemiancoding.com/sketch -->
    <title>-g-dollar</title>
    <desc>Created with Sketch.</desc>
    <defs></defs>
    <g id="x" stroke="none" stroke-width="1" fill="none" fill-rule="evenodd" sketch:type="MSPage">
        <g id="6.0" sketch:type="MSArtboardGroup" transform="translate(-675.000000, -338.000000)">
            <g id="Group" sketch:type="MSLayerGroup" transform="translate(625.000000, 338.000000)">
                <g id="-g-dollar" transform="translate(50.000000, 0.000000)" sketch:type="MSShapeGroup">
                    <circle id="Oval-50" fill="#FFFFFF" cx="20" cy="20" r="20"></circle>
                    <path d="M19.376,30 L19.376,28.8874667 L19.1810667,28.8688 C15.6469333,28.5354667 13.0688,26.3437333 13.0021333,23.6386667 L16.7176,23.6386667 C16.8301333,24.1301333 17.6770667,24.8781333 19.1248,25.1261333 L19.376,25.1688 L19.376,21.8250667 L19.1810667,21.8061333 C15.6,21.4677333 13,19.2229333 13,16.4677333 C13,13.7136 15.5989333,11.4677333 19.1810667,11.1290667 L19.376,11.1104 L19.376,10 L20.8405333,10 L20.8405333,11.1125333 L21.0354667,11.1312 C24.5645333,11.4645333 27.1488,13.6584 27.2144,16.3624 L23.4978667,16.3624 C23.3853333,15.8698667 22.5394667,15.1218667 21.0917333,14.8749333 L20.8405333,14.8322667 L20.8405333,18.1749333 L21.0354667,18.1938667 C24.6165333,18.5322667 27.2165333,20.7781333 27.2165333,23.5322667 C27.2165333,26.2874667 24.6176,28.5322667 21.0354667,28.8709333 L20.8405333,28.8896 L20.8405333,30 L19.376,30 Z M20.8405333,25.1688 L21.0925333,25.1261333 C22.6498667,24.8594667 23.5125333,24.0136 23.5125333,23.5301333 C23.5125333,23.048 22.6509333,22.2010667 21.0925333,21.9344 L20.8405333,21.8906667 L20.8405333,25.1688 Z M19.1248,14.8728 C17.5666667,15.1394667 16.7050667,15.9853333 16.7050667,16.4688 C16.7050667,16.952 17.5666667,17.7978667 19.1248,18.0634667 L19.376,18.1072 L19.376,14.8312 L19.1248,14.8728 Z" id="Page-1" fill="#00A1E0"></path>
                </g>
            </g>
        </g>
    </g>
</svg>