<?xml version="1.0" encoding="UTF-8" standalone="no"?>
<svg width="40px" height="40px" viewBox="0 0 40 40" version="1.1" xmlns="http://www.w3.org/2000/svg" xmlns:xlink="http://www.w3.org/1999/xlink" xmlns:sketch="http://www.bohemiancoding.com/sketch/ns">
    <!-- Generator: Sketch 3.4.4 (17249) - http://www.bohemiancoding.com/sketch -->
    <title>-g-euro</title>
    <desc>Created with Sketch.</desc>
    <defs></defs>
    <g id="x" stroke="none" stroke-width="1" fill="none" fill-rule="evenodd" sketch:type="MSPage">
        <g id="6.0" sketch:type="MSArtboardGroup" transform="translate(-725.000000, -338.000000)" fill="#FFFFFF">
            <g id="Group" sketch:type="MSLayerGroup" transform="translate(625.000000, 338.000000)">
                <g id="-g-euro" transform="translate(100.000000, 0.000000)" sketch:type="MSShapeGroup">
                    <path d="M20,40 C31.045695,40 40,31.045695 40,20 C40,8.954305 31.045695,0 20,0 C8.954305,0 0,8.954305 0,20 C0,31.045695 8.954305,40 20,40 Z M22.3165333,28.3333333 C19.2405333,28.3333333 16.5530667,26.6530667 15.1104,24.1666667 L20.6666667,24.1666667 C21.1269333,24.1666667 21.5,23.7938667 21.5,23.3333333 C21.5,22.8728 21.1269333,22.5 20.6666667,22.5 L14.3656,22.5 C14.1176,21.7104 13.9810667,20.8709333 13.9810667,20 L20.6656,20 C21.1258667,20 21.4989333,19.6272 21.4989333,19.1666667 C21.4989333,18.7061333 21.1258667,18.3333333 20.6656,18.3333333 L14.1509333,18.3333333 C14.9248,14.5344 18.2914667,11.6666667 22.3144,11.6666667 C23.4581333,11.6666667 24.58,11.9042667 25.6458667,12.372 C26.0677333,12.5562667 26.5602667,12.3634667 26.7437333,11.9437333 C26.9290667,11.5218667 26.7373333,11.0301333 26.3144,10.8458667 C25.0362667,10.2853333 23.6906667,10 22.3144,10 C17.3696,10 13.2634667,13.6114667 12.4666667,18.3333333 L9.83333333,18.3333333 C9.3728,18.3333333 9,18.7061333 9,19.1666667 C9,19.6272 9.3728,20 9.83333333,20 L12.3154667,20 C12.3154667,20.8645333 12.4373333,21.7 12.6448,22.5 L9.83333333,22.5 C9.3728,22.5 9,22.8728 9,23.3333333 C9,23.7938667 9.3728,24.1666667 9.83333333,24.1666667 L13.2373333,24.1666667 C14.8218667,27.6032 18.2896,30 22.3176,30 C23.6936,30 25.0405333,29.7157333 26.3186667,29.1552 C26.7405333,28.9698667 26.9312,28.4781333 26.7466667,28.0573333 C26.5602667,27.6354667 26.0677333,27.4448 25.6477333,27.628 C24.5821333,28.0957333 23.4602667,28.3333333 22.3165333,28.3333333 Z" id="Oval-50"></path>
                </g>
            </g>
        </g>
    </g>
</svg>