<?xml version="1.0" encoding="UTF-8" standalone="no"?>
<svg width="40px" height="40px" viewBox="0 0 40 40" version="1.1" xmlns="http://www.w3.org/2000/svg" xmlns:xlink="http://www.w3.org/1999/xlink" xmlns:sketch="http://www.bohemiancoding.com/sketch/ns">
    <!-- Generator: Sketch 3.4.4 (17249) - http://www.bohemiancoding.com/sketch -->
    <title>-g-pound</title>
    <desc>Created with Sketch.</desc>
    <defs></defs>
    <g id="x" stroke="none" stroke-width="1" fill="none" fill-rule="evenodd" sketch:type="MSPage">
        <g id="6.0" sketch:type="MSArtboardGroup" transform="translate(-625.000000, -338.000000)" fill="#FFFFFF">
            <g id="Group" sketch:type="MSLayerGroup" transform="translate(625.000000, 338.000000)">
                <g id="-g-pound" sketch:type="MSShapeGroup">
                    <path d="M20,40 C31.045695,40 40,31.045695 40,20 C40,8.954305 31.045695,0 20,0 C8.954305,0 0,8.954305 0,20 C0,31.045695 8.954305,40 20,40 Z M26.0752,26.3146667 L24.6741333,24.9146667 C22.7397333,26.8738667 19.2533333,25.728 17.9042667,25.1946667 L17.9042667,20.1813333 L21.772,20.1813333 L21.772,18.1957333 L17.9042667,18.1957333 L17.9042667,14.9624 C17.9042667,13.1813333 18.8970667,11.9842667 20.5250667,11.9842667 C21.9,11.9842667 23.3762667,12.9261333 23.3762667,14.9624 L25.3616,14.9624 C25.3616,14.1989333 25.2096,13.4864 24.9293333,12.8501333 C24.6741333,12.2386667 24.2928,11.7042667 23.8344,11.272 C22.9448,10.4584 21.7490667,10 20.5261333,10 C19.3053333,10 18.1594667,10.4322667 17.3448,11.2469333 C16.6824,11.8832 15.92,13.028 15.92,14.9624 L15.92,18.1946667 L14.0866667,18.1946667 L14.0866667,20.1802667 L15.92,20.1802667 L15.92,24.8624 C14.8762667,24.9656 14.0104,25.2197333 13.3229333,25.6272 C12.5856,26.0864 12,27.4136 12,28 L14.0365333,28 C14.0365333,26.3208 17.7272,27.4093333 19.8386667,27.8157333 C20.4752,27.9426667 21.0856,27.9938667 21.672,27.9938667 C23.4781333,27.9938667 24.9802667,27.4344 26.0752,26.3146667 Z" id="Oval-50"></path>
                </g>
            </g>
        </g>
    </g>
</svg>