<?xml version="1.0" encoding="UTF-8" standalone="no"?>
<svg width="20px" height="30px" viewBox="0 0 20 30" version="1.1" xmlns="http://www.w3.org/2000/svg" xmlns:xlink="http://www.w3.org/1999/xlink" xmlns:sketch="http://www.bohemiancoding.com/sketch/ns">
    <!-- Generator: sketchtool 3.4.4 (395) - http://www.bohemiancoding.com/sketch -->
    <title>-g-password</title>
    <desc>Created with sketchtool.</desc>
    <defs></defs>
    <g id="Web" stroke="none" stroke-width="1" fill="none" fill-rule="evenodd" sketch:type="MSPage">
        <g id="Login" sketch:type="MSArtboardGroup" transform="translate(-352.000000, -508.000000)">
            <g id="Sign-In" sketch:type="MSLayerGroup" transform="translate(58.000000, 169.000000)">
                <g id="password-input" transform="translate(272.000000, 319.000000)" sketch:type="MSShapeGroup">
                    <g id="-g-password" transform="translate(20.000000, 5.000000)">
                        <rect id="Rectangle-185" fill-opacity="0" fill="#D8D8D8" x="0" y="0" width="24" height="60"></rect>
                        <g id="Imported-Layers-+-Rectangle-17" transform="translate(2.000000, 15.000000)" fill="#6C7A89">
                            <path d="M5.91591955,16.0338422 L5.91591955,7.9428156 C5.91591955,5.68693967 7.74412406,3.85994669 9.99838462,3.85994669 C12.2526452,3.85994669 14.0808497,5.68855504 14.0808497,7.9428156 L14.0808497,9.66521283 C14.4107907,9.86551975 14.6300783,10.2269607 14.6300783,10.6400937 C14.6300783,11.0536306 14.4091753,11.416283 14.0808497,11.6165899 L14.0808497,12.1452225 C14.0792343,12.1815685 14.0808497,12.2982796 14.0808497,12.2982796 C14.1486956,12.9480656 14.6963089,13.4577175 15.3634601,13.4577175 L16.4506098,13.4577175 C17.1601648,13.4577175 17.7344318,12.8834504 17.7344318,12.1734916 C17.7344318,12.0931266 17.7267587,12.0159922 17.7126242,11.9400695 L17.7126242,11.5725709 C17.4222599,11.3641871 17.2312414,11.026573 17.2312414,10.6417091 C17.2312414,10.2568452 17.4222599,9.91923108 17.7126242,9.71125111 L17.7126242,7.71383572 C17.7126242,3.45327518 14.2577336,0 9.99838462,0 C5.73742024,0 2.28414506,3.45327518 2.28414506,7.71383572 L2.28414506,16.0338422 L1.14207253,16.0338422 C0.511267264,16.0338422 0,16.5451094 0,17.1759147 L0,28.7186011 C0,29.3510217 0.511267264,29.862289 1.14207253,29.862289 L18.8579275,29.862289 C19.4887327,29.862289 20,29.3510217 20,28.7186011 L20,17.1775301 C19.9983846,16.546321 19.4871174,16.0338422 18.8563121,16.0338422 L5.91591955,16.0338422 Z" id="Imported-Layers"></path>
                            <rect id="Rectangle-17" x="14.0999756" y="9" width="3.5999999" height="8"></rect>
                        </g>
                    </g>
                </g>
            </g>
        </g>
    </g>
</svg>