<?xml version="1.0" encoding="UTF-8" standalone="no"?>
<svg width="24px" height="19px" viewBox="0 0 24 19" version="1.1" xmlns="http://www.w3.org/2000/svg" xmlns:xlink="http://www.w3.org/1999/xlink" xmlns:sketch="http://www.bohemiancoding.com/sketch/ns">
    <!-- Generator: sketchtool 3.4.4 (395) - http://www.bohemiancoding.com/sketch -->
    <title>-g-signin-arrow</title>
    <desc>Created with sketchtool.</desc>
    <defs></defs>
    <g id="Web" stroke="none" stroke-width="1" fill="none" fill-rule="evenodd" sketch:type="MSPage">
        <g id="Login---Cookie-List" sketch:type="MSArtboardGroup" transform="translate(-644.000000, -530.000000)" fill="#266692">
            <g id="List" sketch:type="MSLayerGroup" transform="translate(58.000000, 139.000000)">
                <g id="list" transform="translate(213.000000, 305.000000)" sketch:type="MSShapeGroup">
                    <g id="Login" transform="translate(160.000000, 63.000000)">
                        <g id="-g-signin-arrow" transform="translate(213.000000, 23.000000)">
                            <path d="M10.7837326,-1.44608446 L3.40822459,6.0888984 C2.77442445,6.7375645 2.77442445,7.78898448 3.40822459,8.43648879 C4.04202474,9.08554215 5.07119185,9.08554215 5.70650826,8.43648879 L10.3087616,3.7351118 L10.3087616,19.6868762 C10.3087616,20.6035285 11.0354332,21.3462996 11.933064,21.3462996 C12.8303158,21.3462996 13.5573664,20.6035285 13.5573664,19.6868762 L13.5573664,3.7351118 L18.1592407,8.43493973 C18.7930409,9.0839931 19.822208,9.0839931 20.4575244,8.43493973 C20.7744244,8.11118758 20.9328745,7.68635969 20.9328745,7.26114454 C20.9328745,6.83592939 20.7744244,6.4111015 20.4575244,6.08734935 L13.0820163,-1.44608446 C12.4466999,-2.09513782 11.4190491,-2.09513782 10.7837326,-1.44608446" id="Fill-1" transform="translate(11.932874, 9.706713) rotate(-270.000000) translate(-11.932874, -9.706713) "></path>
                        </g>
                    </g>
                </g>
            </g>
        </g>
    </g>
</svg>