<?xml version="1.0" encoding="UTF-8" standalone="no"?>
<svg width="29px" height="23px" viewBox="0 0 29 23" version="1.1" xmlns="http://www.w3.org/2000/svg" xmlns:xlink="http://www.w3.org/1999/xlink" xmlns:sketch="http://www.bohemiancoding.com/sketch/ns">
    <!-- Generator: Sketch 3.4.4 (17249) - http://www.bohemiancoding.com/sketch -->
    <title>“</title>
    <desc>Created with Sketch.</desc>
    <defs></defs>
    <g id="Web" stroke="none" stroke-width="1" fill="none" fill-rule="evenodd" sketch:type="MSPage">
        <g id="6.0" sketch:type="MSArtboardGroup" transform="translate(-325.000000, -803.000000)" fill="#FFFFFF">
            <g id="Group" sketch:type="MSLayerGroup" transform="translate(230.000000, 573.000000)">
                <path d="M108.078125,231.96875 C106.796869,232.312502 105.601568,232.804684 104.492188,233.445312 C103.382807,234.085941 102.421879,234.828121 101.609375,235.671875 C100.796871,236.515629 100.14844,237.429683 99.6640625,238.414062 C99.1796851,239.398442 98.9375,240.406245 98.9375,241.4375 C98.9375,242.031253 99.0624987,242.554685 99.3125,243.007812 C99.5625013,243.46094 99.8593733,243.6875 100.203125,243.6875 C100.546877,243.6875 100.835936,243.617188 101.070312,243.476562 C101.304689,243.335937 101.546874,243.187501 101.796875,243.03125 C102.046876,242.874999 102.335936,242.726563 102.664062,242.585938 C102.992189,242.445312 103.421872,242.375 103.953125,242.375 C104.515628,242.375 105.046873,242.499999 105.546875,242.75 C106.046877,243.000001 106.484373,243.335935 106.859375,243.757812 C107.234377,244.17969 107.531249,244.679685 107.75,245.257812 C107.968751,245.83594 108.078125,246.453122 108.078125,247.109375 C108.078125,247.828129 107.929689,248.499997 107.632812,249.125 C107.335936,249.750003 106.92969,250.28906 106.414062,250.742188 C105.898435,251.195315 105.289066,251.546874 104.585938,251.796875 C103.882809,252.046876 103.140629,252.171875 102.359375,252.171875 C101.32812,252.171875 100.367192,251.945315 99.4765625,251.492188 C98.585933,251.03906 97.8046909,250.414066 97.1328125,249.617188 C96.4609341,248.820309 95.9375019,247.898443 95.5625,246.851562 C95.1874981,245.804682 95,244.671881 95,243.453125 C95,241.578116 95.351559,239.843758 96.0546875,238.25 C96.757816,236.656242 97.7031191,235.265631 98.890625,234.078125 C100.078131,232.890619 101.468742,231.945316 103.0625,231.242188 C104.656258,230.539059 106.328116,230.125001 108.078125,230 L108.078125,231.96875 Z M123.21875,231.96875 C121.937494,232.312502 120.742193,232.804684 119.632812,233.445312 C118.523432,234.085941 117.562504,234.828121 116.75,235.671875 C115.937496,236.515629 115.289065,237.429683 114.804688,238.414062 C114.32031,239.398442 114.078125,240.406245 114.078125,241.4375 C114.078125,242.031253 114.203124,242.554685 114.453125,243.007812 C114.703126,243.46094 114.999998,243.6875 115.34375,243.6875 C115.687502,243.6875 115.976561,243.617188 116.210938,243.476562 C116.445314,243.335937 116.687499,243.187501 116.9375,243.03125 C117.187501,242.874999 117.476561,242.726563 117.804688,242.585938 C118.132814,242.445312 118.562497,242.375 119.09375,242.375 C119.656253,242.375 120.187498,242.499999 120.6875,242.75 C121.187502,243.000001 121.624998,243.335935 122,243.757812 C122.375002,244.17969 122.671874,244.679685 122.890625,245.257812 C123.109376,245.83594 123.21875,246.453122 123.21875,247.109375 C123.21875,247.828129 123.070314,248.499997 122.773438,249.125 C122.476561,249.750003 122.070315,250.28906 121.554688,250.742188 C121.03906,251.195315 120.429691,251.546874 119.726562,251.796875 C119.023434,252.046876 118.281254,252.171875 117.5,252.171875 C116.468745,252.171875 115.507817,251.945315 114.617188,251.492188 C113.726558,251.03906 112.945316,250.414066 112.273438,249.617188 C111.601559,248.820309 111.078127,247.898443 110.703125,246.851562 C110.328123,245.804682 110.140625,244.671881 110.140625,243.453125 C110.140625,241.578116 110.492184,239.843758 111.195312,238.25 C111.898441,236.656242 112.843744,235.265631 114.03125,234.078125 C115.218756,232.890619 116.609367,231.945316 118.203125,231.242188 C119.796883,230.539059 121.468741,230.125001 123.21875,230 L123.21875,231.96875 Z" id="“" sketch:type="MSShapeGroup"></path>
            </g>
        </g>
    </g>
</svg>